<svg width="192" height="115" viewBox="0 0 192 115" fill="none" xmlns="http://www.w3.org/2000/svg">
<path d="M95.5886 23.8971C79.7507 23.8971 66.912 38.8747 66.912 57.3531C66.912 75.8286 79.7507 90.8091 95.5886 90.8091C111.42 90.8091 124.265 75.8346 124.265 57.3531C124.265 38.8747 111.426 23.8971 95.5886 23.8971ZM107.537 74.0811C107.537 75.4014 106.468 76.4708 105.147 76.4708H86.0297C84.7094 76.4708 83.64 75.4014 83.64 74.0811V69.3017C83.64 67.9814 84.7094 66.912 86.0297 66.912H90.8091V50.3513L90.6687 50.4439C90.4077 50.6181 90.115 50.7391 89.8072 50.8C89.4994 50.861 89.1826 50.8606 88.8749 50.799C88.5672 50.7375 88.2747 50.6158 88.0141 50.4411C87.7534 50.2663 87.5298 50.042 87.356 49.7807L84.7034 45.8048C84.5292 45.5438 84.4082 45.2511 84.3472 44.9433C84.2863 44.6355 84.2866 44.3187 84.3482 44.011C84.4098 43.7033 84.5315 43.4108 84.7062 43.1502C84.8809 42.8896 85.1053 42.6659 85.3665 42.4921L89.9458 39.4392C91.1232 38.6542 92.5066 38.2353 93.9217 38.2354H97.9783C99.2986 38.2354 100.368 39.3048 100.368 40.6251V66.912H105.147C106.468 66.912 107.537 67.9814 107.537 69.3017V74.0811ZM181.618 0H9.55886C4.28057 0 0 4.28057 0 9.55886V105.147C0 110.426 4.28057 114.706 9.55886 114.706H181.618C186.897 114.706 191.177 110.426 191.177 105.147V9.55886C191.177 4.28057 186.897 0 181.618 0ZM176.839 81.2503C166.279 81.2503 157.721 89.8084 157.721 100.368H33.456C33.456 89.8084 24.8978 81.2503 14.3383 81.2503V33.456C24.8978 33.456 33.456 24.8978 33.456 14.3383H157.721C157.721 24.8978 166.279 33.456 176.839 33.456V81.2503Z" fill="#5A6470"/>
</svg>
