<svg width="40" height="60" viewBox="0 0 87 65" fill="none" xmlns="http://www.w3.org/2000/svg">
<path fill-rule="evenodd" clip-rule="evenodd" d="M0 10.785C0 7.92464 1.13627 5.18143 3.15885 3.15885C5.18143 1.13627 7.92464 0 10.785 0H75.495C78.3554 0 81.0986 1.13627 83.1211 3.15885C85.1437 5.18143 86.28 7.92464 86.28 10.785V53.925C86.28 56.7854 85.1437 59.5286 83.1211 61.5511C81.0986 63.5737 78.3554 64.71 75.495 64.71H10.785C7.92464 64.71 5.18143 63.5737 3.15885 61.5511C1.13627 59.5286 0 56.7854 0 53.925V10.785ZM10.785 5.3925C9.35482 5.3925 7.98322 5.96064 6.97193 6.97193C5.96064 7.98322 5.3925 9.35482 5.3925 10.785V16.1775H80.8875V10.785C80.8875 9.35482 80.3194 7.98322 79.3081 6.97193C78.2968 5.96064 76.9252 5.3925 75.495 5.3925H10.785ZM80.8875 26.9625H5.3925V53.925C5.3925 55.3552 5.96064 56.7268 6.97193 57.7381C7.98322 58.7494 9.35482 59.3175 10.785 59.3175H75.495C76.9252 59.3175 78.2968 58.7494 79.3081 57.7381C80.3194 56.7268 80.8875 55.3552 80.8875 53.925V26.9625Z" fill="black"/>
<path d="M10.785 43.14C10.785 41.7098 11.3531 40.3382 12.3644 39.3269C13.3757 38.3156 14.7473 37.7475 16.1775 37.7475H21.57C23.0002 37.7475 24.3718 38.3156 25.3831 39.3269C26.3944 40.3382 26.9625 41.7098 26.9625 43.14V48.5325C26.9625 49.9627 26.3944 51.3343 25.3831 52.3456C24.3718 53.3569 23.0002 53.925 21.57 53.925H16.1775C14.7473 53.925 13.3757 53.3569 12.3644 52.3456C11.3531 51.3343 10.785 49.9627 10.785 48.5325V43.14Z" fill="black"/>
</svg>
