<svg width="368" height="347" viewBox="0 0 368 347" fill="none" xmlns="http://www.w3.org/2000/svg">
<path d="M138 28.9167H61.3334C44.3967 28.9167 30.6667 41.8632 30.6667 57.8334V130.125C30.6667 146.096 44.3967 159.042 61.3334 159.042H138C154.937 159.042 168.667 146.096 168.667 130.125V57.8334C168.667 41.8632 154.937 28.9167 138 28.9167Z" fill="#5A6470"/>
<path d="M306.667 187.958H230C213.063 187.958 199.333 200.904 199.333 216.875V289.167C199.333 305.137 213.063 318.083 230 318.083H306.667C323.604 318.083 337.333 305.137 337.333 289.167V216.875C337.333 200.904 323.604 187.958 306.667 187.958Z" fill="#5A6470"/>
<path d="M306.667 28.9167H230C213.063 28.9167 199.333 41.8632 199.333 57.8334V130.125C199.333 146.096 213.063 159.042 230 159.042H306.667C323.604 159.042 337.333 146.096 337.333 130.125V57.8334C337.333 41.8632 323.604 28.9167 306.667 28.9167Z" fill="#5A6470"/>
<path d="M306.667 187.958H230C213.063 187.958 199.333 200.904 199.333 216.875V289.167C199.333 305.137 213.063 318.083 230 318.083H306.667C323.604 318.083 337.333 305.137 337.333 289.167V216.875C337.333 200.904 323.604 187.958 306.667 187.958Z" fill="#5A6470"/>
<path d="M138 187.958H61.3334C44.3967 187.958 30.6667 200.904 30.6667 216.875V289.167C30.6667 305.137 44.3967 318.083 61.3334 318.083H138C154.937 318.083 168.667 305.137 168.667 289.167V216.875C168.667 200.904 154.937 187.958 138 187.958Z" fill="#5A6470"/>
</svg>
