<svg width="175" height="165" viewBox="0 0 175 165" fill="none" xmlns="http://www.w3.org/2000/svg">
<path d="M46 115C46 123.341 39.4523 130 31.5 130C23.5477 130 17 123.341 17 115C17 106.659 23.5477 100 31.5 100C39.4523 100 46 106.659 46 115Z" stroke="black" stroke-width="4"/>
<path d="M20 125C20 125 6.56283 128.99 4.16911 135.535C1.77539 142.079 0.817899 153.422 4.16911 158.221C7.52032 163.02 54.4372 164.766 56.8309 158.221C59.2246 151.677 60.1821 143.388 56.8309 135.535C53.4797 127.681 42.5 125 42.5 125" stroke="black" stroke-width="4"/>
<path d="M160 115C160 123.341 153.452 130 145.5 130C137.548 130 131 123.341 131 115C131 106.659 137.548 100 145.5 100C153.452 100 160 106.659 160 115Z" stroke="black" stroke-width="4"/>
<path d="M134 125.5C134 125.5 120.563 129.49 118.169 136.035C115.775 142.579 114.818 153.922 118.169 158.721C121.52 163.52 168.437 165.266 170.831 158.721C173.225 152.177 174.182 143.888 170.831 136.035C167.48 128.181 156.5 125.5 156.5 125.5" stroke="black" stroke-width="4"/>
<path d="M104 17C104 25.341 97.4523 32 89.5 32C81.5477 32 75 25.341 75 17C75 8.65903 81.5477 2 89.5 2C97.4523 2 104 8.65903 104 17Z" stroke="black" stroke-width="4"/>
<path d="M78 27.5C78 27.5 64.5628 31.4903 62.1691 38.0345C59.7754 44.5788 58.8179 55.9222 62.1691 60.7213C65.5203 65.5205 112.437 67.2656 114.831 60.7213C117.225 54.1771 118.182 45.8877 114.831 38.0345C111.48 30.1814 100.5 27.5 100.5 27.5" stroke="black" stroke-width="4"/>
<path d="M103 115C103 123.341 96.4523 130 88.5 130C80.5477 130 74 123.341 74 115C74 106.659 80.5477 100 88.5 100C96.4523 100 103 106.659 103 115Z" stroke="black" stroke-width="4"/>
<path d="M77 125.5C77 125.5 63.5628 129.49 61.1691 136.035C58.7754 142.579 57.8179 153.922 61.1691 158.721C64.5203 163.52 111.437 165.266 113.831 158.721C116.225 152.177 117.182 143.888 113.831 136.035C110.48 128.181 99.5 125.5 99.5 125.5" stroke="black" stroke-width="4"/>
<line x1="89" y1="65" x2="89" y2="99" stroke="black" stroke-width="4"/>
<path d="M30 100.109C30 100.109 31 92.7481 43.5 85.1092C56 77.4703 125.5 79 136.5 87.5C147.5 96 146.5 100.109 146.5 100.109" stroke="black" stroke-width="4"/>
</svg>
