<svg width="1222" height="1009" viewBox="0 0 1222 1009" fill="none" xmlns="http://www.w3.org/2000/svg">
<path d="M0 988.5H143.5M1221.5 988.5H1088M1088 988.5V191.5L833.5 286.5M1088 988.5H833.5M833.5 286.5V988.5M833.5 286.5V20.5H344.5V340M833.5 988.5H344.5M344.5 988.5H143.5M344.5 988.5V340M143.5 988.5V416.5L344.5 340" stroke="black" stroke-width="40"/>
<rect x="892" y="370" width="134" height="36" rx="15" fill="black"/>
<rect x="892" y="490" width="134" height="36" rx="15" fill="black"/>
<rect x="892" y="610" width="134" height="36" rx="15" fill="black"/>
<rect x="892" y="610" width="134" height="36" rx="15" fill="black"/>
<rect x="892" y="730" width="134" height="36" rx="15" fill="black"/>
<rect x="892" y="849" width="134" height="36" rx="15" fill="black"/>
<rect x="615" y="129" width="147" height="37" rx="15" fill="black"/>
<rect x="615" y="249" width="147" height="37" rx="15" fill="black"/>
<rect x="615" y="370" width="147" height="37" rx="15" fill="black"/>
<rect x="615" y="490" width="147" height="37" rx="15" fill="black"/>
<rect x="615" y="610" width="147" height="37" rx="15" fill="black"/>
<rect x="615" y="730" width="147" height="37" rx="15" fill="black"/>
<rect x="615" y="849" width="147" height="37" rx="15" fill="black"/>
<rect x="414" y="129" width="147" height="37" rx="15" fill="black"/>
<rect x="414" y="249" width="147" height="37" rx="15" fill="black"/>
<rect x="414" y="370" width="147" height="37" rx="15" fill="black"/>
<rect x="414" y="490" width="147" height="37" rx="15" fill="black"/>
<rect x="414" y="610" width="147" height="37" rx="15" fill="black"/>
<rect x="414" y="730" width="147" height="37" rx="15" fill="black"/>
<rect x="414" y="849" width="147" height="37" rx="15" fill="black"/>
<rect x="192" y="610" width="103" height="37" rx="15" fill="black"/>
<rect x="192" y="610" width="103" height="37" rx="15" fill="black"/>
<rect x="192" y="730" width="103" height="37" rx="15" fill="black"/>
<rect x="192" y="730" width="103" height="37" rx="15" fill="black"/>
<rect x="192" y="849" width="103" height="37" rx="15" fill="black"/>
<rect x="192" y="849" width="103" height="37" rx="15" fill="black"/>
<rect x="192" y="490" width="103" height="37" rx="15" fill="black"/>
<rect x="192" y="490" width="103" height="37" rx="15" fill="black"/>
</svg>
