<?xml version="1.0" encoding="UTF-8" standalone="no"?>
<!-- Created with Inkscape (http://www.inkscape.org/) -->

<svg
   width="26.191999mm"
   height="27.784mm"
   viewBox="0 0 26.191999 27.784"
   version="1.1"
   id="svg3250"
   xml:space="preserve"
   inkscape:version="1.2.1 (9c6d41e410, 2022-07-14, custom)"
   sodipodi:docname="Logoexcel.svg"
   xmlns:inkscape="http://www.inkscape.org/namespaces/inkscape"
   xmlns:sodipodi="http://sodipodi.sourceforge.net/DTD/sodipodi-0.dtd"
   xmlns="http://www.w3.org/2000/svg"
   xmlns:svg="http://www.w3.org/2000/svg"><sodipodi:namedview
     id="namedview3252"
     pagecolor="#ffffff"
     bordercolor="#000000"
     borderopacity="0.25"
     inkscape:showpageshadow="2"
     inkscape:pageopacity="0.0"
     inkscape:pagecheckerboard="0"
     inkscape:deskcolor="#d1d1d1"
     inkscape:document-units="mm"
     showgrid="false"
     inkscape:zoom="5.6568543"
     inkscape:cx="90.598056"
     inkscape:cy="65.76093"
     inkscape:window-width="1920"
     inkscape:window-height="1050"
     inkscape:window-x="1366"
     inkscape:window-y="30"
     inkscape:window-maximized="1"
     inkscape:current-layer="layer1" /><defs
     id="defs3247" /><g
     inkscape:groupmode="layer"
     id="layer2"
     inkscape:label="Capa 2"
     transform="translate(-75.149302,-41.093769)" /><g
     inkscape:label="Capa 1"
     inkscape:groupmode="layer"
     id="layer1"
     transform="translate(-75.149302,-41.093769)"><path
       style="opacity:0.93512;fill:#0c7238;fill-opacity:1;stroke-width:0.264583"
       d="m 78.854,43.739604 -5.29e-4,22.183722 16.831656,0.01127 0.03863,-16.911875 -5.127236,-5.279464 z"
       id="path3437" /><path
       style="opacity:0.93512;fill:#dcedc8;fill-opacity:1;stroke-width:0.264583"
       d="m 90.068838,44.488909 0.04438,4.941401 4.877524,-0.04701 z"
       id="path3846" /><path
       style="opacity:0.93512;fill:#ffffff;fill-opacity:1;stroke-width:0.264583"
       d="m 82.992928,50.620058 3.392794,4.688451 -3.424994,4.802017 1.901691,0.006 2.475701,-3.472624 2.480237,3.476216 1.897137,-0.01049 -3.423557,-4.80168 3.353265,-4.698078 -1.906109,-0.0016 -2.396238,3.348795 -2.390425,-3.343978 z"
       id="path4870"
       sodipodi:nodetypes="ccccccccccccc" /><path
       style="opacity:0.93512;fill:#43a047;fill-opacity:1;stroke-width:0.264583"
       d="m 95.702637,57.61408 -2.684952,0.01357 5.1e-5,3.598472 -2.646116,-0.0016 -0.0034,1.522769 2.651027,3.185321 c 0.901044,0.007 1.765951,0.02385 2.666542,4.92e-4 z"
       id="path5691"
       sodipodi:nodetypes="cccccccc" /><path
       style="opacity:1;fill:#455a64;fill-opacity:1;stroke-width:0.264583"
       d="m 97.347652,58.596625 -3.152291,0.0031 0.0053,3.497297 -2.70129,0.0033 4.275437,5.422813 4.270502,-5.424962 -2.693911,-5.29e-4 z"
       id="path6585" /></g></svg>
