<svg width="87" height="88" viewBox="0 0 87 101" fill="none" xmlns="http://www.w3.org/2000/svg">
<path d="M63.3309 27.0762V21.5692C63.3309 21.0644 62.9178 20.6514 62.413 20.6514H18.3568C17.852 20.6514 17.4389 21.0644 17.4389 21.5692V27.0762C17.4389 27.581 17.852 27.9941 18.3568 27.9941H62.413C62.9178 27.9941 63.3309 27.581 63.3309 27.0762ZM18.3568 37.1725C17.852 37.1725 17.4389 37.5855 17.4389 38.0903V43.5973C17.4389 44.1021 17.852 44.5152 18.3568 44.5152H39.4671C39.9719 44.5152 40.3849 44.1021 40.3849 43.5973V38.0903C40.3849 37.5855 39.9719 37.1725 39.4671 37.1725H18.3568ZM34.8779 89.0303H8.26055V8.26055H72.5092V47.7276C72.5092 48.2324 72.9223 48.6454 73.4271 48.6454H79.8519C80.3568 48.6454 80.7698 48.2324 80.7698 47.7276V3.67135C80.7698 1.64064 79.1291 0 77.0984 0H3.67135C1.64064 0 0 1.64064 0 3.67135V93.6195C0 95.6502 1.64064 97.2909 3.67135 97.2909H34.8779C35.3827 97.2909 35.7957 96.8778 35.7957 96.373V89.9482C35.7957 89.4434 35.3827 89.0303 34.8779 89.0303ZM86.0129 94.9389L75.3086 84.2346C77.8671 80.8501 79.393 76.628 79.393 72.0503C79.393 60.8986 70.3523 51.8579 59.2006 51.8579C48.0488 51.8579 39.0081 60.8986 39.0081 72.0503C39.0081 83.2021 48.0488 92.2428 59.2006 92.2428C63.3079 92.2428 67.1169 91.0151 70.3064 88.9156L81.1713 99.7805C81.3549 99.9641 81.5844 100.044 81.8138 100.044C82.0433 100.044 82.2842 99.9526 82.4563 99.7805L86.0129 96.2239C86.0976 96.1397 86.1647 96.0395 86.2106 95.9293C86.2564 95.819 86.28 95.7008 86.28 95.5814C86.28 95.462 86.2564 95.3438 86.2106 95.2335C86.1647 95.1232 86.0976 95.0231 86.0129 94.9389V94.9389ZM59.2006 84.9001C52.0988 84.9001 46.3508 79.1521 46.3508 72.0503C46.3508 64.9485 52.0988 59.2006 59.2006 59.2006C66.3024 59.2006 72.0503 64.9485 72.0503 72.0503C72.0503 79.1521 66.3024 84.9001 59.2006 84.9001Z" fill="black"/>
</svg>
