<svg width="844" height="837" viewBox="0 0 844 837" fill="none" xmlns="http://www.w3.org/2000/svg">
<rect x="64.5" width="483" height="837" rx="95" fill="black"/>
<rect x="64.5" y="657" width="483" height="180" fill="black"/>
<path d="M538 454C538 454 607 445.5 623.5 467.5C640 489.5 661 687 676 722.5C691 758 737 752.5 737 752.5C737 752.5 801 752.5 808 685.5C815 618.5 828.249 522.891 808 422C789.292 328.787 774.901 271.788 717.5 196C682.644 149.98 610.5 94 610.5 94" stroke="black" stroke-width="40"/>
<path d="M704 338.5C691.202 318.469 692.5 271 700 206.5C707.5 142 796.5 252.5 817 308.5C837.5 364.5 802 428.5 788.5 434.5C775 440.5 727 374.5 704 338.5Z" fill="black" stroke="black" stroke-width="40"/>
<path d="M0 811C0 796.088 12.0883 784 27 784H70.131C75.2593 784 80.2701 785.536 84.5178 788.409C91.1264 792.88 95.2812 800.168 95.761 808.132L95.7924 808.655C96.7184 824.026 84.5022 837 69.1032 837H1C0.447715 837 0 836.552 0 836V811Z" fill="black"/>
<path d="M605.5 810.509C605.5 795.316 593.184 783 577.991 783H535.133C529.9 783 524.79 784.584 520.475 787.543C513.874 792.069 509.735 799.391 509.26 807.381L509.22 808.064C508.287 823.759 520.764 837 536.488 837H604.495C605.05 837 605.5 836.55 605.5 835.995V810.509Z" fill="black"/>
</svg>
