<?xml version="1.0" encoding="UTF-8" standalone="no"?>
<!-- Created with Inkscape (http://www.inkscape.org/) -->

<svg
   width="163.535mm"
   height="186.209mm"
   viewBox="0 0 163.53501 186.209"
   version="1.1"
   id="svg5"
   xml:space="preserve"
   inkscape:export-filename="rendiapps.png"
   inkscape:export-xdpi="310.63684"
   inkscape:export-ydpi="310.63684"
   inkscape:version="1.2.1 (9c6d41e410, 2022-07-14, custom)"
   sodipodi:docname="dibujo.svg"
   xmlns:inkscape="http://www.inkscape.org/namespaces/inkscape"
   xmlns:sodipodi="http://sodipodi.sourceforge.net/DTD/sodipodi-0.dtd"
   xmlns="http://www.w3.org/2000/svg"
   xmlns:svg="http://www.w3.org/2000/svg"><sodipodi:namedview
     id="namedview7"
     pagecolor="#ffffff"
     bordercolor="#000000"
     borderopacity="0.25"
     inkscape:showpageshadow="2"
     inkscape:pageopacity="0.0"
     inkscape:pagecheckerboard="0"
     inkscape:deskcolor="#d1d1d1"
     inkscape:document-units="mm"
     showgrid="false"
     inkscape:zoom="0.70710678"
     inkscape:cx="215.66757"
     inkscape:cy="374.76659"
     inkscape:window-width="1366"
     inkscape:window-height="746"
     inkscape:window-x="0"
     inkscape:window-y="178"
     inkscape:window-maximized="1"
     inkscape:current-layer="layer2" /><defs
     id="defs2"><inkscape:perspective
       sodipodi:type="inkscape:persp3d"
       inkscape:vp_x="-389.09409 : 1228.2852 : 1"
       inkscape:vp_y="0 : 460.51156 : 0"
       inkscape:vp_z="-499.81651 : 1228.2852 : 1"
       inkscape:persp3d-origin="-444.45531 : 1205.4899 : 1"
       id="perspective1961" /><rect
       x="-69.486809"
       y="-122.89117"
       width="892.32611"
       height="477.71704"
       id="rect1497" /></defs><g
     inkscape:groupmode="layer"
     id="layer2"
     inkscape:label="Capa 2"
     transform="translate(225.87899,155.90917)"><path
       style="fill:#0cad78;fill-opacity:1;stroke-width:0.241556"
       d="m -146.80862,28.372907 c -0.17127,-0.06825 -0.37363,-0.157233 -0.61184,-0.269608 -0.23822,-0.112375 -0.51229,-0.24814 -0.82698,-0.409949 -0.31469,-0.161809 -0.67,-0.349663 -1.07068,-0.566214 -0.40069,-0.216552 -0.84675,-0.461802 -1.34295,-0.738405 -0.49621,-0.276603 -1.04255,-0.584558 -1.6438,-0.926521 -0.60124,-0.341962 -1.25739,-0.717931 -1.9732,-1.13056 -0.71581,-0.41263 -1.49128,-0.861921 -2.33118,-1.350526 -0.83989,-0.488606 -1.74421,-1.016527 -2.71772,-1.586417 -9.07758,-5.314013 -38.7058,-20.2425317 -56.28784,-33.06331 -2.60476,-1.899386 -5.22616,-3.903686 -7.21313,-6.44227 -0.17184,-0.21954 -0.26065,-0.49291 -0.39098,-0.739365 -0.0652,-0.123227 -0.13031,-0.246462 -0.19549,-0.369682 -0.0163,-0.03081 -0.0326,-0.06161 -0.0489,-0.09242 -0.0163,-0.03081 -0.0337,-0.06104 -0.0489,-0.09242 -0.0152,-0.03153 -0.0296,-0.06357 -0.0423,-0.09619 -0.0119,-0.03046 -0.0237,-0.06112 -0.0319,-0.09279 -0.01,-0.03712 -0.0158,-0.07514 -0.0198,-0.113261 -0.004,-0.0378 -0.003,-0.07595 -0.004,-0.113953 -6.5e-4,-0.03855 9e-5,-0.07712 1.3e-4,-0.115678 4e-5,-0.03856 8e-5,-0.07712 1.2e-4,-0.115677 1.6e-4,-0.154236 4.1e-4,-0.308473 5e-4,-0.462709 0.002,-3.130694 5.3e-4,-6.261389 0.001,-9.392084 5.2e-4,-3.439168 0.001,-6.878335 0.002,-10.317503 1.7e-4,-0.859792 3.3e-4,-1.719584 5e-4,-2.579376 1.7e-4,-0.859792 3.3e-4,-1.719583 5e-4,-2.579375 1.7e-4,-0.859792 3.3e-4,-1.719584 5e-4,-2.579376 1.7e-4,-0.859792 3.3e-4,-1.719584 5e-4,-2.579376 1.7e-4,-0.859792 3.3e-4,-1.719583 5e-4,-2.579375 1.7e-4,-0.859792 3.3e-4,-1.719584 5e-4,-2.579376 1.7e-4,-0.859792 3.3e-4,-1.719583 5e-4,-2.579375 1.7e-4,-0.859792 1.2e-4,-1.719584 5e-4,-2.579376 0.001,-2.923533 0.002,-5.847067 0.006,-8.770599 0.003,-2.679788 0.008,-5.359576 0.0138,-8.039359 0.006,-2.396278 0.0123,-4.792554 0.0212,-7.188821 0.008,-2.073002 0.0164,-4.146001 0.028,-6.218985 0.01,-1.709962 0.0198,-3.419923 0.0341,-5.129851 0.0109,-1.307159 0.0218,-2.61433 0.0395,-3.921415 0.0117,-0.86461 0.0186,-1.72939 0.0442,-2.5937 0.0113,-0.38239 0.005,-0.76654 0.0483,-1.14666 0.0479,-0.42267 0.12907,-0.84221 0.23309,-1.25468 0.0984,-0.3901 0.21825,-0.77612 0.36866,-1.14927 0.14833,-0.36799 0.32346,-0.7264 0.52405,-1.06872 0.20744,-0.35401 0.44404,-0.69176 0.6993,-1.013 0.27546,-0.34666 0.57863,-0.67171 0.89438,-0.98211 0.35123,-0.34528 0.72614,-0.6666 1.1093,-0.97607 0.43363,-0.35023 0.88613,-0.67709 1.34407,-0.99487 0.52207,-0.36228 1.05983,-0.70167 1.59867,-1.03851 1.48714,-0.92963 3.00387,-1.81107 4.50932,-2.71075 2.75485,-1.64635 5.51677,-3.28085 8.27734,-4.91759 3.5758,-2.12009 6.8919,-4.08091 10.73308,-6.35069 3.84118,-2.26977 7.87293,-4.64944 11.87655,-7.01004 4.00361,-2.3606 7.9791,-4.70214 11.70773,-6.89566 3.72863,-2.19352 7.21042,-4.23901 10.22664,-6.00753 3.01623,-1.76852 5.56689,-3.26006 7.43328,-4.34566 1.86638,-1.08561 3.0485,-1.76527 3.32762,-1.91005 0.1575,-0.0817 0.29902,-0.15376 0.43169,-0.21733 0.13267,-0.0636 0.25648,-0.11865 0.37857,-0.16637 0.12209,-0.0477 0.24246,-0.088 0.36822,-0.12216 0.12577,-0.0341 0.25693,-0.062 0.40063,-0.0847 0.14369,-0.0228 0.29992,-0.0404 0.4758,-0.0541 0.17588,-0.0137 0.37141,-0.0234 0.59373,-0.0302 0.22232,-0.007 0.47142,-0.0108 0.75442,-0.0131 0.28301,-0.002 0.59993,-0.003 0.95789,-0.003 0.37087,3e-5 0.69685,3.2e-4 0.98637,0.002 0.28951,0.002 0.54257,0.006 0.76762,0.0128 0.22505,0.007 0.42209,0.0173 0.59955,0.0322 0.17747,0.015 0.33537,0.0347 0.48213,0.0606 0.14677,0.0259 0.28242,0.0581 0.41538,0.0979 0.13296,0.0399 0.26324,0.0874 0.39928,0.14422 0.13604,0.0568 0.27783,0.12277 0.43384,0.19944 0.156,0.0767 0.32621,0.16406 0.51906,0.26362 0.24257,0.12523 0.51338,0.26886 0.84418,0.44935 0.33079,0.18049 0.72158,0.39785 1.2041,0.67053 0.48252,0.27269 1.05678,0.6007 1.75451,1.0025 0.69774,0.4018 1.51896,0.87738 2.4954,1.44522 0.97645,0.56784 2.10812,1.22792 3.42677,1.99872 1.31865,0.7708 2.82427,1.65231 4.54861,2.663 1.72434,1.01069 3.66741,2.15055 5.86094,3.43804 2.19353,1.2875 4.63753,2.72263 7.36374,4.32386 3.99108,2.34415 7.68321,4.51468 11.0914,6.52076 3.408179,2.00608 6.53242,3.84771 9.387733,5.53407 2.855312,1.68637 5.441697,3.21745 7.774168,4.60244 2.332471,1.38498 4.411029,2.62386 6.250689,3.72582 1.83966,1.10195 3.440421,2.06697 4.817299,2.90424 1.376878,0.83727 2.529873,1.54678 3.473999,2.13771 0.944126,0.59092 1.679384,1.06326 2.220789,1.42619 0.541404,0.36293 0.888955,0.61645 1.057667,0.76973 0.196605,0.17862 0.347484,0.34122 0.461612,0.49324 0.114128,0.15201 0.191504,0.29345 0.241103,0.42975 0.0496,0.1363 0.07142,0.26747 0.07444,0.39893 0.003,0.13147 -0.01277,0.26324 -0.03838,0.40076 -0.02561,0.13752 -0.06106,0.28079 -0.09735,0.43525 -0.0363,0.15445 -0.07345,0.3201 -0.102482,0.50238 -0.02903,0.18227 -0.04995,0.38118 -0.05377,0.60217 -0.0038,0.22098 0.0095,0.46404 0.0488,0.73461 0.01643,0.11297 0.04046,0.50094 0.06994,1.14072 0.02948,0.63978 0.06441,1.53138 0.102641,2.6516 0.03823,1.120232 0.07976,2.469095 0.122436,4.023414 0.04268,1.554319 0.0865,3.314094 0.12932,5.256146 0.04282,1.942052 0.08464,4.066381 0.123294,6.349809 0.03866,2.283428 0.07416,4.725955 0.104356,7.304402 0.0302,2.578446 0.05508,5.292813 0.07251,8.119921 0.01743,2.827107 0.02739,5.766956 0.02775,8.796368 l 6.25e-4,5.1864 6.25e-4,5.1864 6.25e-4,5.1864 6.25e-4,5.1864 6.25e-4,5.1864 6.25e-4,5.1864 6.25e-4,5.1864 6.25e-4,5.1864 -0.09375,0.18461 -0.09375,0.18461 -0.09375,0.18461 -0.09375,0.18461 -0.09375,0.18461 -0.09375,0.18461 -0.09375,0.18461 -0.09375,0.18461 c -0.172461,0.33962 -0.337642,0.647236 -0.518772,0.93985 -0.18113,0.292613 -0.378209,0.570225 -0.614466,0.849835 -0.236256,0.27961 -0.51169,0.561218 -0.849531,0.861827 -0.33784,0.300609 -0.738087,0.620217 -1.22397,0.975827 -0.485882,0.35561 -1.0574,0.74722 -1.737783,1.191833 -0.680383,0.444612 -1.469631,0.942226 -2.390973,1.509844 -0.921342,0.567617 -1.974779,1.205237 -3.183538,1.9298607 -1.20876,0.7246239 -2.572843,1.5362517 -4.115479,2.4518843 -2.632373,1.5624471 -5.334117,3.1642063 -8.062767,4.7802711 -2.72865,1.6160649 -5.484206,3.24643536 -8.224204,4.8661051 -2.739998,1.6196697 -5.464431,3.2286386 -8.130851,4.8019003 -2.66642,1.5732616 -5.27481,3.1108165 -7.78271,4.5876565 -2.50791,1.476841 -4.91532,2.892968 -7.17979,4.223375 -2.26446,1.330406 -4.38597,2.575093 -6.32207,3.709053 -1.93609,1.13396 -3.68677,2.157193 -5.20956,3.044693 -1.52279,0.8875 -2.81771,1.639267 -3.84227,2.230295 -0.68547,0.395418 -1.30017,0.747223 -1.85674,1.060337 -0.55656,0.313114 -1.05498,0.587537 -1.50788,0.828188 -0.45291,0.240651 -0.86029,0.44753 -1.23478,0.625559 -0.37449,0.178029 -0.71609,0.327207 -1.03741,0.452454 -0.32133,0.125248 -0.62238,0.226565 -0.91579,0.308872 -0.2934,0.08231 -0.57916,0.145603 -0.8699,0.19481 -0.29073,0.04921 -0.58644,0.08432 -0.89975,0.110273 -0.31331,0.02595 -0.64422,0.04273 -1.00535,0.05526 -0.15824,0.0055 -0.31543,0.0098 -0.46976,0.01309 -0.15434,0.0032 -0.3058,0.0054 -0.45259,0.0065 -0.14678,0.0011 -0.28888,0.0011 -0.42448,1.69e-4 -0.13559,-9.69e-4 -0.26468,-0.0029 -0.38543,-0.0059 -0.12076,-0.0029 -0.23319,-0.0069 -0.33547,-0.01169 -0.10228,-0.0048 -0.19441,-0.01058 -0.27457,-0.01722 -0.0802,-0.0066 -0.14835,-0.01414 -0.20274,-0.02248 -0.0544,-0.0083 -0.095,-0.01751 -0.11998,-0.02748 l -10e-6,5e-6 -1e-5,4e-6 -1e-5,5e-6 -1e-5,4e-6 -2e-5,5e-6 -1e-5,5e-6 -1e-5,4e-6 z"
       id="path958"
       sodipodi:nodetypes="cssssssssaaaaaaaaaaaaaaaaaaaaaaaaaaaaaaaaaaaaaaaaassssssssssssscsssssssssssssssssssssssssssssssssssssssccccccccccccccccssssssssssssssssssssssssssssssssccccccccc"
       inkscape:label="Verde" /><path
       style="fill:#007751;fill-opacity:1;stroke-width:0.240838"
       d="m -145.71883,28.767917 c -1.362,-0.54599 -4.70223,-2.41908 -12.44408,-6.9782 -9.02372,-5.31402 -49.59214,-29.286 -55.9539,-33.06331 -3.98392,-2.36546 -5.96113,-4.14191 -7.17034,-6.44227 40.79593,-21.16816 103.12543,-59.870103 156.074148,-89.814977 0.13063,0.9038 1.130135,22.570486 1.132965,46.805777 l 0.005,41.4912 c 0,0 -0.03731,0.316737 -0.08077,0.469457 -0.02669,0.09377 -0.07099,0.181656 -0.10962,0.271171 -0.05312,0.12308 -0.108123,0.245448 -0.167911,0.36543 -0.08146,0.163474 -0.170814,0.322926 -0.259737,0.482462 -0.162571,0.291666 -0.375208,0.530342 -0.556551,0.833797 -0.181344,0.303456 -0.46979,0.575185 -0.697447,0.844248 -0.594558,0.702695 -1.324451,1.285856 -2.0612,1.837654 -3.571764,2.67512 -5.226041,3.420891 -11.359976,7.0834207 -20.934041,12.4995735 -39.578721,23.0918203 -47.726611,27.8200403 -5.45122,3.16335 -13.10312,7.95882 -15.97503,8.05906 -1.25838,0.0439 -2.45052,0.0147 -2.64921,-0.065 z"
       id="path958-5"
       sodipodi:nodetypes="cssccccaaasssascccc"
       inkscape:label="Verde Obscuro" /><path
       style="fill:#006e4b;fill-opacity:1;stroke-width:0.24188"
       d="m -128.42271,21.95287 c 9.10202,-5.31402 50.022452,-29.2859999 56.439413,-33.06331 4.018488,-2.36546 6.012853,-4.14191 7.232556,-6.44227 -41.149919,-21.16816 -23.810368,-14.782468 -77.218509,-44.727347 -11.38207,6.458054 -9.512,5.469756 -28.53978,16.185093 l -52.81789,27.024254 0.75198,1.47688 c 1.38344,2.71695 2.20796,3.732313 14.58227,11.0573704 5.27893,3.124895 10.32853,6.48009755 15.18944,9.3047519 4.86092,2.8246543 9.25656,5.2179165 13.44076,7.6186837 4.1842,2.400768 8.17159,4.409791 11.42037,6.263025 3.24877,1.853235 6.16558,3.273532 8.22023,4.455587 5.49852,3.163344 11.43173,7.621324 14.32857,7.721564 1.2693,0.0439 4.24651,0.09543 5.03283,-0.218187 0.78631,-0.313617 4.12875,-2.096975 11.93776,-6.656095 z"
       id="path958-0"
       sodipodi:nodetypes="ssccccssssssscs"
       inkscape:label="Verde Mas Obscuro" /><path
       style="fill:#d8d9d8;stroke-width:0.119518;fill-opacity:1"
       d="m -141.72534,-41.245929 c 2.7111,-8.0366 5.71395,-16.865727 9.69348,-28.501292 1.87555,-5.483841 4.82528,-14.160081 6.55495,-19.280534 1.72966,-5.120454 3.2035,-9.458907 3.27518,-9.641008 l 0.13034,-0.331095 9.09559,0.03077 9.0956,0.03077 2.0533,6.126523 c 1.12932,3.369593 2.51893,7.477968 3.088024,9.129726 0.569085,1.65176 2.721225,8.003524 4.782528,14.115033 2.061301,6.111502 4.898348,14.517454 6.304555,18.679884 1.406217,4.162443 2.815146,8.338381 3.130949,9.279888 l 0.574192,1.711825 h -7.299079 -7.299064 l -0.220291,-0.750773 c -0.121166,-0.412939 -0.939728,-3.196805 -1.819054,-6.186372 l -1.59876,-5.435567 -11.05862,0.02986 -11.05861,0.02986 -1.8484,6.126524 -1.84838,6.126528 -7.09232,0.031 -7.09234,0.03095 z m 36.46942,-21.407773 c -0.0363,-0.09583 -1.70846,-5.717812 -3.71569,-12.493306 l -3.64954,-12.319082 -0.54381,0.01784 -0.48501,0.0097 c 0,0 -1.77844,5.890491 -3.80852,12.609722 -2.03007,6.719225 -3.69105,12.246609 -3.69105,12.283076 0,0.03645 3.59096,0.0663 7.9799,0.0663 6.92287,0 7.97113,-0.02309 7.91372,-0.174219 z"
       id="path1844"
       sodipodi:nodetypes="sssscccssssscccsscccccccssccccsssss" /></g><g
     inkscape:label="Texto"
     inkscape:groupmode="layer"
     id="layer1"
     transform="translate(407.1645,169.71205)"><path
       style="opacity:0.93512;fill:#ffffff;fill-opacity:1;stroke-width:0.264583"
       d="m -313.80069,-82.14411 15.93595,-9.397978 2.93335,-9.702702 1.02618,-0.0102 1.86619,6.319982 10.72836,-6.324302 -3.8403,-11.50124 -18.22552,-0.0441 z"
       id="path4857"
       inkscape:label="Pedacito de A iluminada"
       sodipodi:nodetypes="ccccccccc" /><rect
       style="opacity:0.93512;fill:#d9d9d9;fill-opacity:1;stroke-width:0.329573"
       id="rect5126"
       width="119.19553"
       height="2.6621478"
       x="-381.09232"
       y="-48.610065"
       inkscape:label="Linea" /><path
       style="opacity:0.93512;fill:#ffffff;fill-opacity:1;stroke-width:0.268424"
       d="m -379.0555,-45.949717 -2.03026,-8e-4 -0.004,-2.653045 7.23238,-0.0059 z"
       id="path5214"
       sodipodi:nodetypes="ccccc"
       inkscape:label="Pedacito de linea iluminado" /><text
       xml:space="preserve"
       style="font-style:normal;font-variant:normal;font-weight:bold;font-stretch:normal;font-size:14.1111px;font-family:Commissioner;-inkscape-font-specification:'Commissioner Bold';opacity:0.93512;fill:#cbd2d0;fill-opacity:1;stroke-width:0.264583"
       x="-360.59949"
       y="-33.863632"
       id="text5218"
       inkscape:label="Rendiapps"><tspan
         sodipodi:role="line"
         id="tspan5216"
         style="font-style:normal;font-variant:normal;font-weight:bold;font-stretch:normal;font-size:14.1111px;font-family:'Abhaya Libre Medium';-inkscape-font-specification:'Abhaya Libre Medium,  Bold';stroke-width:0.264583;fill:#cbd2d0;fill-opacity:1"
         x="-360.59949"
         y="-33.863632">RENDIAPPS</tspan></text><path
       style="fill:#fdfdfd;stroke-width:0.11968;fill-opacity:1"
       d="M -378.6753,-82.891206 V -112.0223 h 13.51873 c 13.37647,0 15.84556,0.0549 18.83661,0.41896 10.35547,1.26037 15.38803,4.92512 16.90212,12.308293 0.36093,1.759953 0.39177,6.035721 0.0555,7.700038 -0.73169,3.621861 -2.1606,6.397404 -4.42247,8.590345 -1.86905,1.812082 -4.26616,3.206789 -7.03177,4.091281 -0.76504,0.244672 -1.41173,0.460355 -1.43709,0.479293 -0.0254,0.01895 0.54976,0.822326 1.27808,1.785306 0.72832,0.962975 3.98118,5.267916 7.2286,9.566526 3.24741,4.298617 6.82252,9.019821 7.94469,10.491566 1.12217,1.471745 2.04031,2.71071 2.04031,2.753244 0,0.04251 -3.80226,0.07734 -8.44946,0.07734 h -8.44946 l -4.89572,-6.779494 c -2.69264,-3.728721 -6.16995,-8.577983 -7.72735,-10.77614 l -2.83166,-3.996643 h -3.90162 -3.90163 v 10.776135 10.776142 h -7.37823 -7.37822 z m 26.27118,-2.189307 c 4.76732,-0.614437 7.05345,-2.556108 7.67023,-6.514496 0.7131,-4.576636 -0.8224,-7.858114 -4.27367,-9.133121 -1.73424,-0.64067 -2.04267,-0.66619 -8.71237,-0.72102 l -6.19891,-0.051 v 8.297884 8.297888 h 5.07389 c 3.79841,0 5.41752,-0.04431 6.44083,-0.176183 z"
       id="path1791"
       inkscape:label="Rvectorizada" /><path
       style="opacity:0.93512;fill:#d6d6d6;fill-opacity:1;stroke-width:0.264583"
       d="m -347.00349,-62.635459 11.59936,-6.76995 11.65524,15.647868 -16.95393,0.02368 z"
       id="path4531"
       inkscape:label="Pedacito de R obscurecido"
       sodipodi:nodetypes="ccccc"
       transform="translate(-1.2916667e-5)" /></g><g
     inkscape:groupmode="layer"
     id="layer3"
     inkscape:label="Fondo"
     transform="translate(340.0622,-38.677008)" /></svg>
