<svg width="368" height="347" viewBox="0 0 36 65" fill="none" xmlns="http://www.w3.org/2000/svg">
<path d="M19.0535 28.4005C10.8929 26.2794 8.2685 24.0865 8.2685 20.6713C8.2685 16.7527 11.8994 14.0205 17.975 14.0205C23.0799 14.0205 25.6324 15.9618 26.5671 19.0535C26.9985 20.4915 28.1848 21.57 29.6947 21.57H30.7732C33.1459 21.57 34.8356 19.2333 34.0087 17.0044C32.4988 12.7623 28.9757 9.23915 23.3675 7.87305V5.3925C23.3675 2.40865 20.9589 0 17.975 0C14.9912 0 12.5825 2.40865 12.5825 5.3925V7.7652C5.6082 9.2751 0 13.8048 0 20.7432C0 29.0476 6.86645 33.1818 16.8965 35.5905C25.884 37.7475 27.6815 40.9111 27.6815 44.2545C27.6815 46.735 25.92 50.6895 17.975 50.6895C12.0433 50.6895 8.9875 48.5685 7.80115 45.5487C7.2619 44.1466 6.0396 43.14 4.56565 43.14H3.55905C1.1504 43.14 -0.53925 45.5846 0.3595 47.8135C2.40865 52.8105 7.19 55.7585 12.5825 56.9089V59.3175C12.5825 62.3014 14.9912 64.71 17.975 64.71C20.9589 64.71 23.3675 62.3014 23.3675 59.3175V56.9808C30.3778 55.6506 35.95 51.5883 35.95 44.2185C35.95 34.0087 27.2142 30.5215 19.0535 28.4005Z" fill="#5A6470"/>
</svg>
