<?xml version="1.0" encoding="UTF-8" standalone="no"?>
<!-- Created with Inkscape (http://www.inkscape.org/) -->

<svg
   width="26.191999mm"
   height="27.784mm"
   viewBox="0 0 26.191999 27.784"
   version="1.1"
   id="svg3250"
   xml:space="preserve"
   inkscape:version="1.2.1 (9c6d41e410, 2022-07-14, custom)"
   sodipodi:docname="Logoadobe.svg"
   xmlns:inkscape="http://www.inkscape.org/namespaces/inkscape"
   xmlns:sodipodi="http://sodipodi.sourceforge.net/DTD/sodipodi-0.dtd"
   xmlns="http://www.w3.org/2000/svg"
   xmlns:svg="http://www.w3.org/2000/svg"><sodipodi:namedview
     id="namedview3252"
     pagecolor="#ffffff"
     bordercolor="#000000"
     borderopacity="0.25"
     inkscape:showpageshadow="2"
     inkscape:pageopacity="0.0"
     inkscape:pagecheckerboard="0"
     inkscape:deskcolor="#d1d1d1"
     inkscape:document-units="mm"
     showgrid="false"
     inkscape:zoom="2.8284272"
     inkscape:cx="64.877047"
     inkscape:cy="51.972348"
     inkscape:window-width="1366"
     inkscape:window-height="746"
     inkscape:window-x="0"
     inkscape:window-y="178"
     inkscape:window-maximized="1"
     inkscape:current-layer="layer2" /><defs
     id="defs3247" /><g
     inkscape:groupmode="layer"
     id="layer2"
     inkscape:label="Capa 2"
     transform="translate(-75.149302,-41.093769)" /><g
     inkscape:label="Capa 1"
     inkscape:groupmode="layer"
     id="layer1"
     transform="translate(-75.149302,-41.093769)"><path
       style="opacity:0.93512;fill:#ff5722;fill-opacity:1;stroke-width:0.264583"
       d="m 78.854,43.739604 -5.29e-4,22.183722 16.831656,0.01127 0.03863,-16.911875 -5.127236,-5.279464 z"
       id="path3437" /><path
       style="opacity:1;fill:#fbe9e7;fill-opacity:1;stroke-width:0.264583"
       d="m 90.068838,44.488909 0.04438,4.941401 4.877524,-0.04701 z"
       id="path3846" /><path
       style="opacity:0.93512;fill:#ff8a65;fill-opacity:1;stroke-width:0.264583"
       d="m 95.702637,57.61408 -2.684952,0.01357 5.1e-5,3.598472 -2.646116,-0.0016 -0.0034,1.522769 2.651027,3.185321 c 0.901044,0.007 1.765951,0.02385 2.666542,4.92e-4 z"
       id="path5691"
       sodipodi:nodetypes="cccccccc" /><path
       style="opacity:1;fill:#455a64;fill-opacity:1;stroke-width:0.264583"
       d="m 97.347652,58.596625 -3.152291,0.0031 0.0053,3.497297 -2.70129,0.0033 4.275437,5.422813 4.270502,-5.424962 -2.693911,-5.29e-4 z"
       id="path6585" /><path
       style="fill:#ffffff;fill-opacity:1;stroke-width:0.0219743"
       d="m 82.197448,62.629726 c -0.273773,-0.08007 -0.451958,-0.21275 -0.545459,-0.406159 -0.291171,-0.602299 0.174077,-1.327207 1.294085,-2.016329 0.300199,-0.184708 0.931467,-0.49532 1.340834,-0.659752 0.174486,-0.07009 0.334031,-0.143248 0.354544,-0.162579 0.03404,-0.03208 0.443042,-0.842147 0.60944,-1.207066 0.320903,-0.703756 0.632684,-1.475403 0.907083,-2.244993 l 0.12451,-0.349208 -0.120462,-0.290816 c -0.229238,-0.553426 -0.390711,-1.136991 -0.465193,-1.681215 -0.04843,-0.353885 -0.03391,-0.874113 0.03132,-1.121454 0.124184,-0.470961 0.408479,-0.737716 0.810644,-0.760633 0.383968,-0.02188 0.713941,0.151257 0.94105,0.49377 0.212146,0.31995 0.2763,0.643277 0.256998,1.295231 -0.02276,0.768723 -0.156148,1.524455 -0.397468,2.251883 l -0.101163,0.304933 0.0996,0.185808 c 0.264895,0.494189 0.772845,1.167957 1.31836,1.748726 l 0.19255,0.205 0.339125,-0.04453 c 0.86458,-0.113537 1.652499,-0.143133 2.089463,-0.07848 1.030011,0.152392 1.547543,0.609426 1.452963,1.283109 -0.0506,0.36041 -0.228939,0.56943 -0.586704,0.68763 -0.138335,0.04571 -0.222253,0.05666 -0.5016,0.0655 -0.360411,0.0114 -0.531042,-0.0071 -0.878817,-0.09519 -0.654018,-0.165682 -1.377834,-0.550161 -1.911235,-1.015206 l -0.193727,-0.168897 -0.211042,0.03796 c -1.046553,0.188237 -2.63736,0.637885 -2.731151,0.771974 -0.01698,0.02428 -0.100257,0.168281 -0.185057,0.320011 -0.0848,0.15173 -0.2659,0.444708 -0.402444,0.651059 -0.748286,1.130855 -1.507582,1.816356 -2.213654,1.998512 -0.212175,0.05474 -0.532886,0.05537 -0.717384,0.0014 z m 0.380186,-0.621213 c 0.304869,-0.139535 0.78512,-0.626857 1.227955,-1.246035 0.159929,-0.223615 0.328164,-0.481561 0.328164,-0.503156 0,-0.05287 -0.870173,0.421163 -1.2227,0.666068 -0.290902,0.202094 -0.631116,0.546048 -0.720752,0.728671 -0.03819,0.07781 -0.06944,0.160906 -0.06944,0.184672 0,0.02377 0.03822,0.08177 0.08494,0.128894 0.07302,0.07365 0.09836,0.08561 0.180504,0.0852 0.05256,-2.5e-4 0.138651,-0.02021 0.191318,-0.04431 z m 8.858698,-2.571529 c 0.152927,-0.06445 0.245728,-0.189079 0.245728,-0.329994 0,-0.171933 -0.112987,-0.277297 -0.404761,-0.377449 -0.163388,-0.05608 -0.205603,-0.06073 -0.634496,-0.06985 -0.323628,-0.0069 -0.568962,7.5e-4 -0.82984,0.02591 -0.203708,0.01963 -0.374153,0.03949 -0.378764,0.04414 -0.0178,0.01799 0.39095,0.275869 0.640323,0.403939 0.280454,0.144032 0.568296,0.253373 0.798016,0.303141 0.196435,0.04256 0.463016,0.04264 0.563794,1.66e-4 z m -4.910625,-0.685173 c 0.376965,-0.107992 0.865791,-0.232007 1.294684,-0.328464 0.144405,-0.03248 0.276566,-0.06361 0.293699,-0.06919 0.02228,-0.0072 0.0061,-0.0366 -0.05687,-0.103155 -0.25657,-0.271153 -0.681321,-0.819185 -0.923442,-1.19147 -0.0768,-0.118087 -0.145721,-0.214658 -0.153155,-0.214604 -0.0074,4.4e-5 -0.08169,0.181303 -0.16501,0.402774 -0.163673,0.435066 -0.460684,1.159013 -0.588499,1.434438 -0.04365,0.09407 -0.07395,0.171042 -0.06733,0.171042 0.0067,0 0.17129,-0.04562 0.365923,-0.101377 z m 0.08671,-4.329136 c 0.243846,-0.985783 0.295485,-1.697886 0.14474,-1.995947 -0.07408,-0.146467 -0.222546,-0.170924 -0.336962,-0.05551 -0.08054,0.08124 -0.108437,0.163493 -0.145327,0.428467 -0.04395,0.315704 0.03071,0.99669 0.167699,1.52974 0.03267,0.127152 0.0643,0.253532 0.07026,0.280843 0.006,0.02731 0.01761,0.04966 0.02588,0.04966 0.0083,0 0.04143,-0.106763 0.0737,-0.23725 z"
       id="path13610" /></g></svg>
