<svg width="255" height="256" viewBox="0 0 255 256" fill="none" xmlns="http://www.w3.org/2000/svg">
<path d="M198.364 226.876V214.719C198.312 202.938 193.599 191.657 185.255 183.34C176.911 175.023 165.615 170.346 153.834 170.331H146.342C147.776 160.01 151.922 150.254 158.358 142.058C165.57 132.175 169.389 120.223 169.243 107.989C169.243 79.9994 150.583 57.2398 127.682 57.2398C104.781 57.2398 86.121 79.9994 86.121 107.989C85.9749 120.223 89.7937 132.175 97.006 142.058C103.442 150.254 107.588 160.01 109.022 170.331H100.964C89.2491 170.391 78.0372 175.1 69.7931 183.424C61.549 191.747 56.9475 203.004 57.0001 214.719V226.876H198.364Z" fill="#5A6470"/>
<path fill-rule="evenodd" clip-rule="evenodd" d="M226.637 0.694336H28.7273C21.2358 0.71671 14.0575 3.70262 8.76019 8.99995C3.46287 14.2973 0.476964 21.4756 0.45459 28.9671V226.876C0.476964 234.368 3.46287 241.546 8.76019 246.843C14.0575 252.141 21.2358 255.127 28.7273 255.149H226.637C234.128 255.127 241.306 252.141 246.604 246.843C251.901 241.546 254.887 234.368 254.909 226.876V28.9671C254.887 21.4756 251.901 14.2973 246.604 8.99995C241.306 3.70262 234.128 0.71671 226.637 0.694336ZM226.637 226.876H198.364H57.0001H28.7273V28.9671H226.637V226.876Z" fill="#5A6470"/>
</svg>
