<svg width="144" height="144" viewBox="0 0 144 144" fill="none" xmlns="http://www.w3.org/2000/svg">
<path fill-rule="evenodd" clip-rule="evenodd" d="M63.7746 0H78.9879C79.4479 0.0213496 79.8518 0.0739594 80.4191 0.197473C84.5795 1.1034 86.1613 2.59729 90.0332 11.7466L90.6643 13.2559L93.0976 19.2852L93.2977 19.3674L96.4329 17.9482C103.261 14.8948 106.781 13.6087 109.147 13.2499L109.638 13.1868L110.531 13.1386C112.662 13.1386 114.833 13.8934 116.494 15.2076L117.28 15.9104L127.006 25.5961L127.682 26.3107C130.737 29.6761 131.022 32.062 127.643 40.7576L126.518 43.5629L123.868 49.8343L123.918 49.9567L129.99 52.2242L132.917 53.3811C140.479 56.4726 142.032 58.1202 143.043 61.9051C143.247 62.6682 143.319 63.1881 143.343 63.8335L143.353 64.5344V78.2083C143.353 79.1803 143.319 79.7293 143.08 80.69C142.074 84.7304 140.581 86.269 131.494 90.1074L129.995 90.7333L124.007 93.1495L123.965 93.2504L126.131 97.9803C131.514 109.947 131.703 112.57 128.164 116.511L127.721 116.991L117.737 126.967C115.95 128.774 113.404 129.769 110.94 129.769C108.848 129.769 105.561 128.774 99.9592 126.527L96.9601 125.299L93.5439 123.854L93.3485 123.935L91.5833 128.669C87.2615 140.055 85.7809 141.904 81.3411 143.05C80.6851 143.219 80.2159 143.291 79.6831 143.321L78.8049 143.339H65.1225C64.2685 143.339 63.7866 143.314 62.9385 143.13C58.7796 142.228 57.1916 140.731 53.312 131.576L52.6797 130.066L50.2423 124.033L50.0547 123.956L45.5012 126.003C38.2179 129.209 35.0626 130.185 32.8138 130.185C30.708 130.185 28.5636 129.445 26.8577 128.119L26.0435 127.407L16.331 117.707L15.2218 116.498C12.5583 113.364 12.4273 110.933 15.6967 102.569L17.4003 98.3817L19.48 93.493L19.4366 93.3879L14.7283 91.6334C5.28316 88.0492 2.37234 86.3984 0.989118 83.3844L0.614972 82.4361L0.302439 81.3861C0.125596 80.7149 0.0501267 80.234 0.0194626 79.6868L0 78.7842V65.102C0 64.1224 0.0339597 63.5686 0.277904 62.5997C1.1874 58.9873 2.47829 57.3829 9.27827 54.3358L12.0965 53.1188L19.3335 50.1922L19.3831 50.0717L16.6773 44.1016C12.2125 33.9604 11.8427 30.8726 14.6596 27.4239L15.0451 26.9714L15.9578 26.004L25.6326 16.3511C27.4052 14.5687 29.9406 13.5639 32.4084 13.5639C34.1735 13.5639 36.7653 14.2623 40.9132 15.8334L45.0863 17.4877L49.8171 19.4704L50.011 19.3897L51.7897 14.6246C56.1516 3.15639 57.7087 1.23855 62.3098 0.208554C62.8902 0.0786284 63.3042 0.0232309 63.7746 0V0ZM75.4251 14.3217H67.4336L66.3068 16.9632C65.879 18.0133 65.3963 19.2399 64.8512 20.6637L62.3535 27.3449C61.7545 28.9266 60.6193 30.2367 59.1599 31.0562L58.4042 31.424L52.533 33.8671C51.0507 34.4839 49.4135 34.5818 47.8827 34.1617L46.979 33.8475L40.0331 30.9197L36.2812 29.4236L33.7594 28.4928L28.0955 34.1439L28.762 35.8276C29.0226 36.4618 29.3224 37.1709 29.6642 37.9608L30.8187 40.5789L33.7141 46.9086C34.4077 48.416 34.5526 50.1071 34.1432 51.6945L33.831 52.6322L31.4303 58.4661C30.7947 60.0107 29.6435 61.2764 28.1862 62.0569L27.4329 62.4058L19.6376 65.5393L15.7408 67.2097L14.3353 67.8605V75.9611L16.017 76.6902C16.6537 76.9565 17.3687 77.2468 18.1683 77.5636L20.8276 78.5956L27.2895 80.9953C28.9186 81.5825 30.2704 82.7357 31.1088 84.2293L31.4842 85.0034L33.8852 90.8202C34.5018 92.3139 34.5921 93.9626 34.1585 95.5002L33.8355 96.4073L31.0489 102.947L29.3013 107.26L28.4499 109.551L34.1142 115.208L35.8008 114.541C36.4221 114.288 37.1029 114.004 37.8451 113.688L43.0477 111.393L46.7996 109.666C48.3697 108.916 50.1493 108.767 51.8074 109.227L52.6248 109.508L58.5304 111.946C60.0958 112.593 61.373 113.768 62.1487 115.254L62.4938 116.021L63.9634 119.73L66.0549 124.816L67.2653 127.595L67.9216 129.004H75.9367L77.0813 126.306L78.5721 122.499L80.9996 115.99C81.5982 114.394 82.742 113.073 84.214 112.251L84.9764 111.882L90.857 109.455C92.3221 108.85 93.9373 108.752 95.4512 109.159L96.3453 109.463L101.883 111.812L105.924 113.458L108.136 114.311L109.596 114.839L115.266 109.179L114.174 106.482L112.534 102.744L109.633 96.4191C108.937 94.9091 108.792 93.2143 109.203 91.6239L109.517 90.6845L111.913 84.8759C112.545 83.3433 113.686 82.0855 115.129 81.3048L115.876 80.9551L122.478 78.3011L125.848 76.8883L126.775 76.4853L129.017 75.4593V67.3667L126.769 66.407L123.724 65.2019L116.038 62.3405C114.412 61.7491 113.065 60.5939 112.231 59.1002L111.857 58.3263L109.461 52.486C108.849 50.9959 108.761 49.3527 109.193 47.82L109.514 46.9158L111.74 41.7129C112.319 40.3369 112.823 39.1168 113.259 38.0384L114.039 36.0663L114.89 33.7619L109.223 28.1181L107.535 28.7859C106.602 29.1665 105.533 29.6182 104.319 30.1456L103.058 30.6985L96.4431 33.6987C94.9383 34.3882 93.2513 34.5316 91.6677 34.1233L90.7321 33.812L84.8303 31.386C83.2854 30.7509 82.0192 29.6002 81.2381 28.143L80.889 27.3898L78.8023 22.169L77.2901 18.5114L76.4525 16.5661L75.4251 14.3217ZM71.6797 42.9923C87.4926 42.9923 100.347 55.844 100.347 71.6566C100.347 87.4702 87.4916 100.333 71.6797 100.333C55.8633 100.333 43.0058 87.4725 43.0058 71.6566C43.0058 55.8417 55.8624 42.9923 71.6797 42.9923V42.9923ZM71.6797 57.3276C63.7777 57.3276 57.3411 63.7606 57.3411 71.6566C57.3411 79.5562 63.7813 85.9981 71.6797 85.9981C79.5725 85.9981 86.0116 79.555 86.0116 71.6566C86.0116 63.7618 79.5761 57.3276 71.6797 57.3276V57.3276Z" fill="#070707"/>
</svg>
